<?xml version="1.0" standalone="no"?>
<!DOCTYPE svg PUBLIC "-//W3C//DTD SVG 20010904//EN"
 "http://www.w3.org/TR/2001/REC-SVG-20010904/DTD/svg10.dtd">
<svg version="1.0" xmlns="http://www.w3.org/2000/svg"
 width="512.000000pt" height="512.000000pt" viewBox="0 0 512.000000 512.000000"
 preserveAspectRatio="xMidYMid meet">

<g transform="translate(0.000000,512.000000) scale(0.100000,-0.100000)"
fill="#000000" stroke="none">
<path d="M2355 5051 c-177 -50 -531 -160 -883 -274 -313 -101 -345 -114 -358
-139 -9 -18 -14 -61 -14 -134 l0 -107 -41 -44 c-44 -48 -66 -93 -78 -157 -5
-28 -12 -40 -22 -38 -8 2 -51 15 -95 29 -81 25 -82 25 -107 7 -33 -25 -38 -64
-27 -209 16 -188 71 -366 138 -443 35 -40 60 -46 98 -23 43 26 50 63 23 115
-12 22 -28 53 -36 67 -19 38 -52 171 -59 245 -8 76 -6 77 103 40 124 -42 225
-49 588 -42 449 10 421 16 790 -180 l70 -37 185 85 c308 142 260 134 708 130
408 -3 475 2 617 43 123 35 118 37 110 -42 -4 -38 -13 -99 -21 -138 -19 -92
-18 -107 7 -139 29 -37 81 -36 106 2 30 44 40 74 53 158 13 83 19 338 9 348
-4 4 -20 10 -36 15 -29 9 -79 -2 -278 -59 -70 -20 -109 -24 -303 -28 -123 -2
-233 -1 -246 2 -21 5 -24 14 -35 94 -6 49 -11 116 -11 149 l0 60 163 47 c341
99 357 106 357 166 0 33 -9 40 -80 67 -135 50 -811 262 -1145 358 -124 36
-140 36 -250 6z m185 -151 c99 -25 889 -268 899 -277 9 -7 -11 -16 -91 -39
-192 -57 -176 -56 -311 -29 -421 82 -616 89 -942 35 -367 -60 -318 -58 -452
-21 -110 31 -174 61 -130 61 9 0 43 9 74 19 32 11 105 34 163 51 58 17 123 38
145 45 22 7 78 25 125 39 47 14 157 47 245 74 220 68 189 64 275 42z m-1074
-446 c100 -30 128 -42 134 -59 10 -27 -23 -259 -40 -280 -8 -10 -30 -15 -61
-15 l-49 0 0 59 c0 68 -21 135 -53 169 -12 13 -48 40 -79 59 -55 34 -58 38
-58 76 l0 40 40 -6 c21 -3 96 -22 166 -43z m1277 -9 c136 -21 337 -61 369 -74
31 -12 42 -58 43 -181 l0 -75 -75 -7 c-143 -14 -217 -29 -291 -57 -92 -35
-218 -90 -287 -125 l-52 -26 -118 65 c-188 105 -268 129 -477 140 l-120 7 17
117 c9 64 17 119 17 123 2 20 233 72 466 103 121 17 367 12 508 -10z m-1482
-204 c18 -14 23 -31 27 -80 l4 -61 -75 0 c-93 0 -103 9 -81 73 16 49 54 87 84
87 10 0 28 -8 41 -19z"/>
<path d="M1535 3671 c-302 -49 -532 -238 -637 -523 -39 -109 -51 -301 -24
-419 40 -179 171 -363 339 -478 128 -87 315 -138 467 -126 233 17 401 92 553
247 276 284 288 716 27 1026 -102 121 -239 207 -399 251 -83 23 -250 34 -326
22z m323 -184 c304 -106 482 -413 418 -717 -40 -188 -158 -335 -342 -425 -118
-58 -172 -69 -314 -63 -131 6 -221 34 -323 102 -75 50 -175 160 -216 236 -36
66 -71 213 -71 294 0 216 184 480 390 557 150 56 325 62 458 16z"/>
<path d="M1389 3327 c-114 -50 -189 -115 -189 -165 0 -26 47 -72 75 -72 12 0
49 18 82 39 86 55 96 60 153 71 121 23 241 -22 312 -116 119 -155 68 -369
-108 -459 -52 -26 -69 -30 -144 -29 -65 0 -96 5 -130 20 -90 42 -164 140 -180
240 -13 77 -36 108 -84 112 -70 6 -94 -39 -76 -141 24 -134 126 -279 238 -336
136 -69 339 -68 466 5 171 96 268 292 237 477 -20 122 -97 245 -189 304 -96
62 -168 83 -285 83 -93 0 -108 -3 -178 -33z"/>
<path d="M1564 3109 c-30 -15 -53 -60 -44 -84 11 -28 43 -55 76 -64 20 -5 35
-21 54 -57 29 -57 65 -79 104 -65 39 15 60 54 51 97 -14 77 -72 140 -156 169
-48 17 -56 17 -85 4z"/>
<path d="M3375 3651 c-122 -38 -174 -62 -262 -123 -170 -117 -292 -307 -323
-501 -15 -98 -14 -203 5 -287 18 -84 96 -250 150 -322 84 -114 287 -242 437
-275 96 -22 290 -22 379 0 92 22 166 52 232 91 31 19 59 31 62 27 2 -4 14 -50
26 -102 19 -81 23 -124 23 -304 1 -193 -1 -219 -26 -320 -117 -492 -463 -894
-936 -1086 -219 -89 -366 -113 -651 -107 -192 5 -214 7 -324 37 -275 75 -510
202 -695 376 -89 84 -186 198 -201 237 -11 31 -1 86 35 178 106 270 311 490
591 631 128 65 237 102 384 128 l101 18 64 -98 c71 -106 100 -128 148 -109 34
13 54 35 105 120 22 36 51 77 65 92 26 25 27 26 94 13 170 -33 330 -86 461
-152 175 -90 300 -200 441 -388 55 -73 106 -135 115 -139 48 -18 105 16 105
63 0 59 -140 255 -272 379 -196 184 -510 336 -778 377 -25 4 -48 9 -52 12 -4
2 6 29 24 59 29 52 30 58 17 86 -20 42 -254 273 -304 299 -41 22 -41 22 -80 3
-46 -22 -309 -278 -319 -312 -7 -22 10 -61 57 -133 l17 -26 -77 -18 c-487
-114 -827 -370 -1020 -770 -25 -52 -49 -95 -53 -95 -3 0 -23 40 -43 88 -85
209 -119 449 -99 695 16 184 16 183 -10 207 -29 27 -69 25 -100 -3 -36 -33
-53 -151 -52 -352 3 -340 93 -631 287 -922 73 -110 190 -236 360 -389 87 -78
89 -80 102 -144 14 -68 67 -225 91 -272 19 -36 55 -45 93 -22 41 24 45 55 21
144 -31 118 -35 115 78 73 260 -96 448 -133 689 -133 239 0 435 37 656 124 85
33 87 34 87 13 0 -12 -9 -51 -20 -87 -29 -94 -27 -126 10 -145 43 -22 87 -19
104 8 13 20 86 252 101 320 4 18 30 47 83 89 42 34 133 118 203 187 183 184
309 379 389 604 114 319 128 655 43 988 l-27 107 51 78 c66 102 98 179 119
290 48 259 -45 533 -245 716 -197 179 -497 252 -736 179z m338 -146 c151 -32
304 -134 390 -262 70 -102 99 -188 104 -308 7 -128 -7 -201 -56 -300 -49 -99
-117 -176 -213 -241 -118 -80 -181 -102 -319 -111 -131 -8 -213 8 -328 64 -76
36 -109 59 -170 122 -124 123 -181 263 -181 439 0 227 136 439 353 549 116 58
282 78 420 48z m-1066 -1182 c41 -36 79 -75 84 -85 8 -15 0 -34 -38 -96 -59
-96 -115 -172 -125 -172 -9 0 -154 217 -165 246 -4 11 19 41 73 95 43 43 82
79 87 79 5 0 43 -30 84 -67z"/>
<path d="M3370 3351 c-117 -39 -220 -115 -220 -163 0 -28 22 -52 61 -67 21 -8
34 -6 60 10 137 79 209 93 315 61 88 -27 161 -89 195 -164 35 -77 33 -193 -3
-264 -32 -60 -94 -119 -157 -147 -71 -32 -188 -29 -264 6 -31 14 -71 41 -88
59 -42 44 -84 138 -98 218 -11 70 -34 100 -76 100 -62 0 -88 -75 -66 -192 25
-138 116 -252 257 -324 l77 -39 131 0 c130 0 132 0 207 36 143 69 251 215 265
359 8 81 -9 196 -38 258 -34 72 -153 186 -235 224 -62 29 -78 32 -183 35 -63
1 -126 -1 -140 -6z"/>
<path d="M3441 3124 c-25 -32 -26 -46 -7 -83 10 -18 31 -34 60 -45 36 -14 47
-24 56 -51 13 -38 52 -75 81 -75 9 0 31 12 48 26 37 31 40 68 12 129 -36 77
-107 125 -185 125 -36 0 -48 -5 -65 -26z"/>
<path d="M1381 518 c-43 -23 -47 -40 -27 -125 22 -94 61 -214 81 -254 13 -25
21 -29 55 -29 46 0 80 27 80 63 0 52 -75 294 -103 330 -17 22 -58 30 -86 15z"/>
<path d="M1160 501 c-35 -18 -35 -20 -34 -82 1 -44 13 -99 38 -175 38 -116 65
-164 94 -164 26 0 79 36 86 58 9 26 -48 233 -82 301 -37 74 -57 86 -102 62z"/>
<path d="M3620 458 c-22 -37 -71 -182 -91 -271 -15 -68 -4 -103 37 -113 45
-11 77 7 101 57 25 52 71 209 79 273 6 38 3 45 -21 64 -42 33 -81 29 -105 -10z"/>
<path d="M3871 471 c-21 -21 -95 -240 -106 -313 -6 -41 -4 -47 20 -67 28 -21
70 -27 91 -13 31 20 102 227 111 323 5 51 3 58 -18 73 -32 22 -75 20 -98 -3z"/>
</g>
</svg>
