   <svg
      xmlns="http://www.w3.org/2000/svg"
      version="1.0"
      width="300"
      height="300"
      viewBox="0 0 300 300"
    >
      <path d="M107.5 15.1c-26.4 8.2-51.6 16-56 17.3C16.05 42.95 15 43.5 15 50.05c0 7.15-.15 7.05 52.3 21.2 4.65 1.25 4.65 1.25-3.1 7.7C37.6 101 24.6 144.5 34.6 178c1.1 3.65 1.6 8.5 1.45 14.5-.45 20.95 4.35 45 11.6 58.45 14.6 26.8 47.35 47.7 59.6 38.05 2.5-1.95 4.1-2 49.7-2h47.15l3 2.25c8.7 6.4 28.95-.85 45.15-16.15 19.85-18.7 28.2-41.5 27.7-75.6-.2-11.1.15-14.15 2.15-21 10.2-34.45-6.5-81.65-36.05-101.8-3.15-2.15-5.25-1.3 24.95-10.05 27.9-8 29-8.55 29-14.25 0-7.2-1.15-7.85-28-16.2C233.15 22.15 157.75-.1 156.3.1c-.45.05-22.4 6.8-48.8 15zM122 73.05c13.6 2.15 27.6 11.9 33.6 23.4l2.8 5.3 3.35-5.65c22.6-37.7 77.7-28.65 99.65 16.4 16.6 34.15 10.35 74.9-15.15 98.7-5.75 5.35-11.4 9.05-25.7 16.85C204.15 237 193 250.4 193 261.15c0 3.1-7.4 8.95-8.35 6.65-2.4-5.55-26.6-34.8-28.25-34.1-2.15.95-23.1 25.6-24.6 29-1.05 2.35-2.05 4.3-2.2 4.3-3.45 0-7.4-3.35-7.95-6.75-1.95-12.2-11.95-23.4-31-34.75C75.9 216.75 68.9 211 62.3 202.35 26.6 155.25 52 81.05 106.55 73.1c8.3-1.2 8.2-1.2 15.45-.05z" />
      <path d="M100.1 85.5c-37.6 10.55-56.2 59.55-37.15 98 6.75 13.6 16.25 23.1 32.3 32.35 17.45 10.1 24.35 16.2 29.8 26.35l3.25 6.1 13.6-14.15c7.7-8.05 14.4-14.2 15.4-14.15 2.1 0 2.75.65 17.1 16.75 12.85 14.45 10.8 13.5 14.6 6.4 4.25-8 13.5-16.95 22.8-22.15 28.7-15.95 36.25-23.2 43.85-42.05 12.1-29.9 2.35-67.95-21.7-84.85-27.55-19.35-61.15-9.5-70.4 20.55-3.55 11.45-6.75 11.65-10.3.65-7.7-23.8-29.9-36.25-53.15-29.8zm15.35 16.05c29.1 7.55 40.65 40.4 22.45 63.5-22 27.75-64.5 16.65-71-18.6-4.95-26.8 22.1-51.8 48.55-44.9zm104.95 1.95c30.25 7.9 40.15 44.75 18 66.9-16.2 16.2-40.75 16.3-56.6.2-28.5-28.95-.7-77.3 38.6-67.1zM166.95 172c2.4 0 .85 5.1-5.7 18.9l-3.5 7.45-2.35-3.95c-2.35-3.85-9.75-21.5-9.2-21.8 3.05-1.8 12.75-3 15.5-1.9 1.8.7 4.15 1.3 5.25 1.3z" />
      <path d="M99.45 109.9c-32.7 8.45-32.1 54 .8 61.15 23.95 5.25 45.4-20.45 35.8-42.75-5.65-13.05-23.25-21.9-36.6-18.4zm17.4 12.85c7.2 5.3 9.35 14.15 4.6 18.9C117.4 145.7 108 141.1 108 135c0-1.2-.5-1.75-1.35-1.45-.7.3-1.25 1.5-1.25 2.7.05 1.3-.6 2.35-1.65 2.55-2.1.4-3.55-2.65-1.8-3.75.85-.55.4-1-1.35-1.45-3.1-.75-4.35-4.6-2.75-8.2 2.45-5.3 13.35-6.85 19-2.65zM200 112.6c-27.65 10-29.25 45.8-2.6 58 24.95 11.4 52.3-14.2 42.65-39.85-5.7-15.1-24.7-23.7-40.05-18.15zm18.1 10.45c5 2.55 7.9 7.15 7.9 12.7 0 10.1-10.95 11.05-15 1.3-1.1-2.7-1.7-3.05-5.4-3.05-8.25 0-9.1-6.15-1.65-11.3 3.35-2.3 9.25-2.15 14.15.35zM208 137c0 2.35-4.45 2.85-5.3.6-.75-1.85.1-2.6 2.95-2.6 1.7 0 2.35.55 2.35 2z" />
    </svg>